HIERARCHY
ROOT Hips
{
  OFFSET 5.84602e-005 68.8428 3.50346
  CHANNELS 6 Xposition Yposition Zposition Zrotation Xrotation Yrotation
  JOINT Spine
  {
    OFFSET 0 8.597 -4.6522
    CHANNELS 3 Zrotation Xrotation Yrotation
    JOINT Spine1
    {
      OFFSET 0 7.8454 0.4098
      CHANNELS 3 Zrotation Xrotation Yrotation
      JOINT Spine2
      {
        OFFSET 0 9.7078 -2.1609
        CHANNELS 3 Zrotation Xrotation Yrotation
        JOINT Neck
        {
          OFFSET 0 21.8761 -0.4549
          CHANNELS 3 Zrotation Xrotation Yrotation
          JOINT Head
          {
            OFFSET 0 12.3537 3.3602
            CHANNELS 3 Zrotation Xrotation Yrotation
            End Site
            {
              OFFSET 0.0001 18.9506 0.5657
            }
          }
        }
        JOINT LeftShoulder
        {
          OFFSET 2.2086 21.1115 7.2329
          CHANNELS 3 Zrotation Xrotation Yrotation
          JOINT LeftArm
          {
            OFFSET 13.1193 3.0282 -4.8998
            CHANNELS 3 Zrotation Xrotation Yrotation
            JOINT LeftForeArm
            {
              OFFSET 27.4081 -0.0973053 -0.2375
              CHANNELS 3 Zrotation Xrotation Yrotation
              JOINT LeftHand
              {
                OFFSET 22.8641 0.0662994 -0.1369
                CHANNELS 3 Zrotation Xrotation Yrotation
                JOINT LeftHandIndex1
                {
                  OFFSET 8.8614 0.775009 2.4612
                  CHANNELS 3 Zrotation Xrotation Yrotation
                  JOINT LeftHandIndex2
                  {
                    OFFSET 3.3146 -0.808304 0.5841
                    CHANNELS 3 Zrotation Xrotation Yrotation
                    JOINT LeftHandIndex3
                    {
                      OFFSET 2.2628 -0.552002 0.3989
                      CHANNELS 3 Zrotation Xrotation Yrotation
                      End Site
                      {
                        OFFSET 1.6102 -0.4807 0.2612
                      }
                    }
                  }
                }
                JOINT LeftHandMiddle1
                {
                  OFFSET 8.9937 0.895004 0.2143
                  CHANNELS 3 Zrotation Xrotation Yrotation
                  JOINT LeftHandMiddle2
                  {
                    OFFSET 4.0984 0.0113983 -0.0242
                    CHANNELS 3 Zrotation Xrotation Yrotation
                    JOINT LeftHandMiddle3
                    {
                      OFFSET 2.2716 0.00689697 -0.0138001
                      CHANNELS 3 Zrotation Xrotation Yrotation
                      End Site
                      {
                        OFFSET 2.0404 -0.1441 0.0027
                      }
                    }
                  }
                }
                JOINT LeftHandRing1
                {
                  OFFSET 8.5234 0.597198 -2.0164
                  CHANNELS 3 Zrotation Xrotation Yrotation
                  JOINT LeftHandRing2
                  {
                    OFFSET 3.7188 -0.188293 -0.2328
                    CHANNELS 3 Zrotation Xrotation Yrotation
                    JOINT LeftHandRing3
                    {
                      OFFSET 2.1191 -0.106598 -0.1332
                      CHANNELS 3 Zrotation Xrotation Yrotation
                      End Site
                      {
                        OFFSET 1.8737 -0.2304 -0.0886
                      }
                    }
                  }
                }
                JOINT LeftHandPinky1
                {
                  OFFSET 7.9094 -0.601089 -3.4825
                  CHANNELS 3 Zrotation Xrotation Yrotation
                  JOINT LeftHandPinky2
                  {
                    OFFSET 2.2874 -0.477005 -0.6314
                    CHANNELS 3 Zrotation Xrotation Yrotation
                    JOINT LeftHandPinky3
                    {
                      OFFSET 1.6774 -0.349396 -0.4633
                      CHANNELS 3 Zrotation Xrotation Yrotation
                      End Site
                      {
                        OFFSET 1.4888 -0.4091 -0.3416
                      }
                    }
                  }
                }
                JOINT LeftHandThumb1
                {
                  OFFSET 1.833 -1.3875 1.3896
                  CHANNELS 3 Zrotation Xrotation Yrotation
                  JOINT LeftHandThumb2
                  {
                    OFFSET 3.4129 -1.121 2.5732
                    CHANNELS 3 Zrotation Xrotation Yrotation
                    JOINT LeftHandThumb3
                    {
                      OFFSET 2.2474 -0.804199 1.6192
                      CHANNELS 3 Zrotation Xrotation Yrotation
                      End Site
                      {
                        OFFSET 1.6527 -0.5689 1.1317
                      }
                    }
                  }
                }
              }
            }
          }
        }
        JOINT RightShoulder
        {
          OFFSET -2.2086 21.1115 7.2329
          CHANNELS 3 Zrotation Xrotation Yrotation
          JOINT RightArm
          {
            OFFSET -13.1216 3.0287 -4.9007
            CHANNELS 3 Zrotation Xrotation Yrotation
            JOINT RightForeArm
            {
              OFFSET -27.4081 -0.0973053 -0.2375
              CHANNELS 3 Zrotation Xrotation Yrotation
              JOINT RightHand
              {
                OFFSET -22.8641 0.0664063 -0.1369
                CHANNELS 3 Zrotation Xrotation Yrotation
                JOINT RightHandIndex1
                {
                  OFFSET -8.8614 0.774994 2.4612
                  CHANNELS 3 Zrotation Xrotation Yrotation
                  JOINT RightHandIndex2
                  {
                    OFFSET -3.3146 -0.808304 0.5841
                    CHANNELS 3 Zrotation Xrotation Yrotation
                    JOINT RightHandIndex3
                    {
                      OFFSET -2.2628 -0.552002 0.3989
                      CHANNELS 3 Zrotation Xrotation Yrotation
                      End Site
                      {
                        OFFSET -1.6102 -0.4807 0.2612
                      }
                    }
                  }
                }
                JOINT RightHandMiddle1
                {
                  OFFSET -8.9937 0.894989 0.2143
                  CHANNELS 3 Zrotation Xrotation Yrotation
                  JOINT RightHandMiddle2
                  {
                    OFFSET -4.0984 0.0113983 -0.0242
                    CHANNELS 3 Zrotation Xrotation Yrotation
                    JOINT RightHandMiddle3
                    {
                      OFFSET -2.2716 0.00691223 -0.0138001
                      CHANNELS 3 Zrotation Xrotation Yrotation
                      End Site
                      {
                        OFFSET -2.0404 -0.1441 0.0027
                      }
                    }
                  }
                }
                JOINT RightHandRing1
                {
                  OFFSET -8.5234 0.597198 -2.0164
                  CHANNELS 3 Zrotation Xrotation Yrotation
                  JOINT RightHandRing2
                  {
                    OFFSET -3.7188 -0.188309 -0.2328
                    CHANNELS 3 Zrotation Xrotation Yrotation
                    JOINT RightHandRing3
                    {
                      OFFSET -2.1191 -0.106598 -0.1332
                      CHANNELS 3 Zrotation Xrotation Yrotation
                      End Site
                      {
                        OFFSET -1.8737 -0.2304 -0.0886
                      }
                    }
                  }
                }
                JOINT RightHandPinky1
                {
                  OFFSET -7.9094 -0.601105 -3.4825
                  CHANNELS 3 Zrotation Xrotation Yrotation
                  JOINT RightHandPinky2
                  {
                    OFFSET -2.2874 -0.477005 -0.6314
                    CHANNELS 3 Zrotation Xrotation Yrotation
                    JOINT RightHandPinky3
                    {
                      OFFSET -1.6774 -0.349396 -0.4633
                      CHANNELS 3 Zrotation Xrotation Yrotation
                      End Site
                      {
                        OFFSET -1.4888 -0.4091 -0.3416
                      }
                    }
                  }
                }
                JOINT RightHandThumb1
                {
                  OFFSET -1.833 -1.38751 1.3896
                  CHANNELS 3 Zrotation Xrotation Yrotation
                  JOINT RightHandThumb2
                  {
                    OFFSET -3.41299 -1.12099 2.5732
                    CHANNELS 3 Zrotation Xrotation Yrotation
                    JOINT RightHandThumb3
                    {
                      OFFSET -2.24741 -0.804108 1.6192
                      CHANNELS 3 Zrotation Xrotation Yrotation
                      End Site
                      {
                        OFFSET -1.6527 -0.5689 1.1317
                      }
                    }
                  }
                }
              }
            }
          }
        }
      }
    }
  }
  JOINT RightUpLeg
  {
    OFFSET -9.1966 3.8861 -0.7581
    CHANNELS 3 Zrotation Xrotation Yrotation
    JOINT RightLeg
    {
      OFFSET -0.7359 -41.0265 0
      CHANNELS 3 Zrotation Xrotation Yrotation
      JOINT RightFoot
      {
        OFFSET 0 -40.2855 0
        CHANNELS 3 Zrotation Xrotation Yrotation
        JOINT RightToeBase
        {
          OFFSET 0 -5.6122 11.7359
          CHANNELS 3 Zrotation Xrotation Yrotation
          End Site
          {
            OFFSET 0 0 7.8731
          }
        }
      }
    }
  }
  JOINT LeftUpLeg
  {
    OFFSET 9.1965 3.8864 -0.7581
    CHANNELS 3 Zrotation Xrotation Yrotation
    JOINT LeftLeg
    {
      OFFSET 0.7359 -41.0268 0
      CHANNELS 3 Zrotation Xrotation Yrotation
      JOINT LeftFoot
      {
        OFFSET 0 -40.2855 0
        CHANNELS 3 Zrotation Xrotation Yrotation
        JOINT LeftToeBase
        {
          OFFSET 0 -5.6122 11.7359
          CHANNELS 3 Zrotation Xrotation Yrotation
          End Site
          {
            OFFSET 0 0 7.8731
          }
        }
      }
    }
  }
}
MOTION
Frames:	4
Frame Time:	0.0333333
0.000143789 3.71629 62.6167 -180 -85.9956 -180 -0.0422637 1.40614 -0.0992523 -0.082127 2.81234 -0.197556 -0.0821269 2.81233 -0.197556 1.32441e-006 7.95706 3.13398e-006 5.9875e-008 -13.9914 3.44545e-008 -1.65616 -15.2305 7.86932 -0.63035 -11.9377 -76.2868 -26.6717 -18.5567 -49.1564 5.65821 -48.5863 19.9982 1.7462e-007 -7.59269e-007 -1.01361e-006 3.33624e-007 3.39115e-007 -2.36383e-006 1.7462e-007 -7.59269e-007 -1.01361e-006 1.7462e-007 -7.59269e-007 -1.01361e-006 -0.0146244 -9.02498e-005 1.29682e-006 1.7461e-007 -7.59139e-007 -1.0137e-006 1.7462e-007 -7.59269e-007 -1.01361e-006 -0.0187351 -0.00117523 6.07623e-005 1.74597e-007 -7.59104e-007 -1.01373e-006 1.7462e-007 -7.59269e-007 -1.01361e-006 -0.0122777 -0.00324854 0.000673664 1.74579e-007 -7.59163e-007 -1.01369e-006 1.7462e-007 -7.59269e-007 -1.01361e-006 3.33624e-007 3.39115e-007 -2.36383e-006 1.7462e-007 -7.59269e-007 -1.01361e-006 1.66355 -15.2012 -8.03348 0.627125 -11.9398 76.2822 26.6733 -18.5873 49.1839 -5.58859 -48.6524 -19.8576 -1.17518e-007 -5.12071e-007 6.70885e-007 -3.99923e-007 6.15922e-008 2.70135e-006 -1.17518e-007 -5.12071e-007 6.70885e-007 -1.17518e-007 -5.12071e-007 6.70885e-007 0.0149951 -9.25144e-005 3.01701e-007 -1.17511e-007 -5.11983e-007 6.70952e-007 -1.17518e-007 -5.12071e-007 6.70885e-007 0.0190014 -0.00119314 -6.04078e-005 -1.17502e-007 -5.1196e-007 6.70971e-007 -1.17518e-007 -5.12071e-007 6.70885e-007 0.01224 -0.00324283 -0.00067784 -1.17491e-007 -5.12002e-007 6.70942e-007 -1.17518e-007 -5.12071e-007 6.70885e-007 -3.99923e-007 6.15922e-008 2.70135e-006 -1.17518e-007 -5.12071e-007 6.70885e-007 -89.5841 -52.9929 -120.043 6.39394 -1.84922e-005 8.98415 -15.6068 12.2873 18.233 -1.27419e-008 1.09393e-006 -4.92918e-007 89.6282 -52.9862 120.074 -6.39874 0.0681124 -8.98026 15.6093 12.2462 -18.2311 -1.26368e-008 -1.09389e-006 -4.93041e-007 
0.000143417 3.71646 62.6184 -180 -85.9956 -180 -0.0421223 1.36612 -0.0993369 -0.0819093 2.73227 -0.197753 -0.0819094 2.73229 -0.197752 -3.69611e-006 8.91606 2.05342e-007 -2.96383e-008 -12.9814 -3.28145e-008 -1.60376 -14.9012 7.39187 -0.630369 -11.9377 -76.2869 -26.3573 -18.8993 -48.3923 4.98543 -48.5864 19.4856 -5.35301e-006 1.57062e-007 -1.26652e-006 1.74062e-007 -7.57986e-007 -1.01457e-006 -5.25058e-006 1.50982e-006 -2.27717e-006 -5.35301e-006 1.57062e-007 -1.26652e-006 -0.0146022 -9.02729e-005 8.17248e-008 -5.25107e-006 1.51011e-006 -2.27697e-006 -5.35301e-006 1.57062e-007 -1.26652e-006 -0.0187359 -0.00117382 5.72859e-005 -7.93651e-006 1.10204e-006 -2.5023e-006 -5.35301e-006 1.57062e-007 -1.26652e-006 -0.0122702 -0.00324905 0.000674372 -7.93719e-006 1.10215e-006 -2.50228e-006 -5.35301e-006 1.57062e-007 -1.26652e-006 1.74062e-007 -7.57986e-007 -1.01457e-006 -5.25058e-006 1.50982e-006 -2.27717e-006 1.61087 -14.8732 -7.54747 0.627124 -11.9399 76.2822 26.3585 -18.9285 48.418 -4.91905 -48.6483 -19.3519 -1.17139e-007 -5.11218e-007 6.71534e-007 2.6994e-006 -9.62402e-007 9.47808e-007 1.15606e-006 -9.97147e-007 8.26504e-007 -1.17139e-007 -5.11218e-007 6.71534e-007 0.0149963 -8.9687e-005 2.16523e-006 1.15735e-006 -9.97047e-007 8.26633e-007 -1.17139e-007 -5.11218e-007 6.71534e-007 0.0189859 -0.00119225 -5.94998e-005 -1.17123e-007 -5.11107e-007 6.7162e-007 -1.17139e-007 -5.11218e-007 6.71534e-007 0.0122405 -0.00324218 -0.000675571 -1.17111e-007 -5.11148e-007 6.71592e-007 -1.17139e-007 -5.11218e-007 6.71534e-007 2.6994e-006 -9.62402e-007 9.47808e-007 1.15606e-006 -9.97147e-007 8.26504e-007 -89.6473 -53.0838 -120.062 6.66443 -1.46573e-006 8.96149 -15.6399 12.03 18.2009 2.93022e-006 1.86141e-007 2.91416e-006 89.643 -53.0938 120.053 -6.66913 -6.22262e-006 -8.96506 15.6378 12.0233 -18.2033 3.97569e-015 -1.59028e-015 -7.95139e-016 
0.000141568 3.71664 62.6201 -180 -85.9956 -180 -0.0419812 1.3261 -0.099422 -0.0816928 2.6523 -0.197951 -0.0816928 2.65226 -0.197952 2.52268e-006 9.87442 1.33987e-006 3.88704e-008 -11.9717 -1.0591e-007 -1.5486 -14.5723 6.91489 -0.630342 -11.9377 -76.2869 -26.0376 -19.2379 -47.6248 4.31276 -48.5827 18.973 -5.78375e-008 2.52234e-007 3.38508e-007 -5.78375e-008 2.52234e-007 3.38508e-007 -5.78375e-008 2.52234e-007 3.38508e-007 -5.78375e-008 2.52234e-007 3.38508e-007 -0.0146065 -8.80233e-005 -7.47895e-007 -2.72284e-006 -1.56442e-007 9.92173e-008 -5.78375e-008 2.52234e-007 3.38508e-007 -0.0187456 -0.00117238 5.77666e-005 -5.78296e-008 2.52179e-007 3.3855e-007 -5.78375e-008 2.52234e-007 3.38508e-007 -0.0123003 -0.00325758 0.000677798 -5.78236e-008 2.52199e-007 3.38537e-007 -5.78375e-008 2.52234e-007 3.38508e-007 -5.78375e-008 2.52234e-007 3.38508e-007 -5.78375e-008 2.52234e-007 3.38508e-007 1.5554 -14.5459 -7.06193 0.627129 -11.9398 76.2822 26.0383 -19.2656 47.6487 -4.24966 -48.6403 -18.8464 3.43055e-007 -3.2363e-007 -2.36509e-006 2.40774e-007 2.87545e-006 -9.95809e-007 5.4942e-006 9.48459e-007 2.61948e-007 3.43055e-007 -3.2363e-007 -2.36509e-006 0.0149852 -8.9729e-005 2.26131e-006 5.49473e-006 9.4849e-007 2.6182e-007 3.43055e-007 -3.2363e-007 -2.36509e-006 0.0190241 -0.00119237 -5.72369e-005 5.49487e-006 9.48463e-007 2.61731e-007 3.43055e-007 -3.2363e-007 -2.36509e-006 0.0122606 -0.00324095 -0.000675079 5.49463e-006 9.48405e-007 2.61667e-007 3.43055e-007 -3.2363e-007 -2.36509e-006 2.40774e-007 2.87545e-006 -9.95809e-007 5.4942e-006 9.48459e-007 2.61948e-007 -89.711 -53.175 -120.084 6.93425 -1.34933e-005 8.94009 -15.6726 11.7727 18.1686 -1.05356e-014 -1.59028e-015 -2.38542e-015 89.7267 -53.1779 120.091 -6.93889 0.0277535 -8.94063 15.6723 11.7526 -18.1693 -3.18013e-006 2.84689e-007 -2.21311e-007 
0.000139681 3.71681 62.6218 -180 -85.9956 -180 -0.0418396 1.28608 -0.0995055 -0.0814754 2.57223 -0.198146 -0.0814753 2.57221 -0.198147 2.78193e-006 10.8321 -6.14168e-006 -3.14106e-008 -10.9624 -9.14129e-008 -1.49072 -14.244 6.43836 -0.630361 -11.9377 -76.2869 -25.7124 -19.5723 -46.8539 3.64028 -48.5749 18.4607 2.88289e-007 -1.25903e-006 -1.69412e-006 -2.76144e-006 9.4333e-008 4.24317e-007 -1.25792e-006 -2.87577e-006 -5.17883e-007 2.88289e-007 -1.25903e-006 -1.69412e-006 -0.0146221 -8.9093e-005 1.14501e-006 1.24803e-007 -2.36248e-006 -3.48376e-007 2.88289e-007 -1.25903e-006 -1.69412e-006 -0.0187238 -0.00117374 6.05962e-005 -1.25957e-006 -2.87579e-006 -5.18335e-007 2.88289e-007 -1.25903e-006 -1.69412e-006 -0.0122791 -0.00325016 0.000676288 1.24786e-007 -2.3625e-006 -3.48329e-007 2.88289e-007 -1.25903e-006 -1.69412e-006 -2.76144e-006 9.4333e-008 4.24317e-007 -1.25792e-006 -2.87577e-006 -5.17883e-007 1.49717 -14.2189 -6.57686 0.62713 -11.9399 76.2823 25.7128 -19.5986 46.876 -3.58064 -48.6285 -18.3412 -1.16399e-007 -5.0951e-007 6.72819e-007 -5.38769e-006 -2.30021e-006 -1.27739e-006 -1.16399e-007 -5.0951e-007 6.72819e-007 -1.16399e-007 -5.0951e-007 6.72819e-007 0.0150137 -9.32298e-005 -3.7275e-006 -1.16391e-007 -5.09422e-007 6.72886e-007 -1.16399e-007 -5.0951e-007 6.72819e-007 0.0189955 -0.0011914 -6.09028e-005 -1.16382e-007 -5.09399e-007 6.72905e-007 -1.16399e-007 -5.0951e-007 6.72819e-007 0.0122956 -0.00325496 -0.000674163 -1.16371e-007 -5.0944e-007 6.72877e-007 -1.16399e-007 -5.0951e-007 6.72819e-007 -5.38769e-006 -2.30021e-006 -1.27739e-006 -1.16399e-007 -5.0951e-007 6.72819e-007 -89.775 -53.2667 -120.107 7.2034 -6.09702e-006 8.91998 -15.705 11.5155 18.1362 -3.13042e-006 1.59275e-008 -1.00619e-006 89.7512 -53.2832 120.082 -7.20799 -0.0277516 -8.92675 15.7011 11.5235 -18.1404 -6.29622e-006 -4.30494e-007 -1.86406e-006 
